<svg width="460" height="151" viewBox="0 0 460 151" fill="none" xmlns="http://www.w3.org/2000/svg">
<path d="M209.5 14.5H59L73.5 36L2 113.5H73.5L81.5 101.5H98V113.5H144L176.5 150.5H409L459 61.5H427L454 14.5H392.5L366 36L361 14.5H337.5L352.5 1L265.5 23.5V14.5H218.5L209.5 23.5V14.5Z" fill="#21211F" stroke="black"/>
<g filter="url(#filter0_iii_402_13)">
<path d="M88 40L29.5 104.5H62L71.5 91H113.5V99H145L152 45L139 31.5H81.5L88 40Z" fill="#F5F5F5"/>
</g>
<path d="M88 40L29.5 104.5H62L71.5 91H113.5V99H145L152 45L139 31.5H81.5L88 40Z" stroke="#F0ECE5"/>
<g filter="url(#filter1_d_402_13)">
<path d="M110.5 64.5V50L86 77L96 71.5H117.5L110.5 64.5Z" fill="black"/>
<path d="M110.5 64.5V50L86 77L96 71.5H117.5L110.5 64.5Z" stroke="#F5F5F5"/>
</g>
<g filter="url(#filter2_d_402_13)">
<path d="M88 40L29.5 104.5H62L71.5 91H113.5V99H145L152 45L139 31.5H81.5L88 40Z" stroke="black" shape-rendering="crispEdges"/>
</g>
<path d="M193 29.5H150L159.5 42L154 99L174.5 116.5L208.5 75.5V102.5H240L311.5 24.5L269 35L245 60.5L249.5 29.5H218.5L193 57.5V29.5Z" stroke="black"/>
<path d="M298.5 48H311.5L298.5 56.5L276 102.5H306.5L322 74.5L334 102.5L372 74.5L355.5 102.5H388.5L427.5 31.5H393.5L355.5 56.5L349.5 31.5H311.5L298.5 48Z" stroke="black"/>
<path d="M209.5 14.5H59L73.5 36L2 113.5H73.5L81.5 101.5H98V113.5H144L176.5 150.5H409L459 61.5H427L454 14.5H392.5L366 36L361 14.5H337.5L352.5 1L265.5 23.5V14.5H218.5L209.5 23.5V14.5Z" stroke="black"/>
<g filter="url(#filter3_iii_402_13)">
<path d="M193 29.5H150L159.5 42L154 99L174.5 116.5L208.5 75.5V102.5H240L311.5 24.5L269 35L245 60.5L249.5 29.5H218.5L193 57.5V29.5Z" fill="#F5F5F5"/>
</g>
<path d="M193 29.5H150L159.5 42L154 99L174.5 116.5L208.5 75.5V102.5H240L311.5 24.5L269 35L245 60.5L249.5 29.5H218.5L193 57.5V29.5Z" stroke="#21211F"/>
<g filter="url(#filter4_iii_402_13)">
<path d="M298.5 48H311.5L298.5 56.5L276 102.5H306.5L322 74.5L334 102.5L372 74.5L355.5 102.5H388.5L427.5 31.5H393.5L355.5 56.5L349.5 31.5H311.5L298.5 48Z" fill="#F5F5F5"/>
</g>
<path d="M298.5 48H311.5L298.5 56.5L276 102.5H306.5L322 74.5L334 102.5L372 74.5L355.5 102.5H388.5L427.5 31.5H393.5L355.5 56.5L349.5 31.5H311.5L298.5 48Z" stroke="#21211F"/>
<path d="M435.5 74.5H414L393.5 108.5H348.5V98L339.5 108.5H325L320 92L312.5 108.5H261.5L282 67.5L247.5 108.5H198V98L176.5 125L154 113.5L181.5 143H400.5L435.5 74.5Z" fill="#F1393F" stroke="black"/>
<path d="M242.5 118L233.5 134H239.5L245 123C245.5 122.167 247.2 120.5 250 120.5H262V123H248L245 125V128H258L255 134H262L270 118L267.5 116.5H245L242.5 118Z" fill="#F8F0F0"/>
<path d="M272.5 118C270.9 119.2 266.167 129.167 264 134H270L276 122L280.5 120.5H292.5L291 123H277V126.5L284 134H292.5L294 129.5H287L284 126.5H294L296 125L300.5 120.5L302 116.5L300.5 115H277C276.167 115.5 274.1 116.8 272.5 118Z" fill="#F8F0F0"/>
<path d="M303.5 116.5L294 134H300.5L308 119L310.5 118H322.5V122H310.5L307.5 123V126.5H318.5L316.5 134H322.5L330 120.5L331.5 116.5L328.5 115H306L303.5 116.5Z" fill="#F8F0F0"/>
<path d="M326 131.5V134H350L352.5 131.5L358.5 123H339L336.5 126.5H350L348 128H334.5L336.5 123L339 120.5H360.5C361.333 118.667 362.9 115 362.5 115C362 115 337 115 334.5 116.5C332.5 117.7 328 127 326 131.5Z" fill="#F8F0F0"/>
<path d="M355.5 131.5L357 134H381L382.5 129.5H367L364 128L367 120.5L369.5 119L382.5 119.5L381 122C377 122.333 368.6 123 367 123C365.4 123 366.333 125.333 367 126.5H383.5L385.5 125L390 118V115H385.5H367L364 118L355.5 131.5Z" fill="#F8F0F0"/>
<path d="M242.5 118L233.5 134H239.5L245 123C245.5 122.167 247.2 120.5 250 120.5H262V123H248L245 125V128H258L255 134H262L270 118L267.5 116.5H245L242.5 118Z" stroke="#F5F5F5"/>
<path d="M272.5 118C270.9 119.2 266.167 129.167 264 134H270L276 122L280.5 120.5H292.5L291 123H277V126.5L284 134H292.5L294 129.5H287L284 126.5H294L296 125L300.5 120.5L302 116.5L300.5 115H277C276.167 115.5 274.1 116.8 272.5 118Z" stroke="#F5F5F5"/>
<path d="M303.5 116.5L294 134H300.5L308 119L310.5 118H322.5V122H310.5L307.5 123V126.5H318.5L316.5 134H322.5L330 120.5L331.5 116.5L328.5 115H306L303.5 116.5Z" stroke="#F5F5F5"/>
<path d="M326 131.5V134H350L352.5 131.5L358.5 123H339L336.5 126.5H350L348 128H334.5L336.5 123L339 120.5H360.5C361.333 118.667 362.9 115 362.5 115C362 115 337 115 334.5 116.5C332.5 117.7 328 127 326 131.5Z" stroke="#F5F5F5"/>
<path d="M355.5 131.5L357 134H381L382.5 129.5H367L364 128L367 120.5L369.5 119L382.5 119.5L381 122C377 122.333 368.6 123 367 123C365.4 123 366.333 125.333 367 126.5H383.5L385.5 125L390 118V115H385.5H367L364 118L355.5 131.5Z" stroke="#F5F5F5"/>
<path d="M214 116.5L211 118L202 132L204.5 134.5H225.5H229.5L231 132L236 125L234 123.5H216.5V126.5H225.5L227.5 128.5L225.5 130.5H212.5L211 128.5L214 123.5L216.5 120.5H237.5L239.5 118L237.5 116.5H220H214Z" fill="#F8F0F0" stroke="#F5F5F5"/>
<defs>
<filter id="filter0_iii_402_13" x="28.3716" y="27" width="128.155" height="83" filterUnits="userSpaceOnUse" color-interpolation-filters="sRGB">
<feFlood flood-opacity="0" result="BackgroundImageFix"/>
<feBlend mode="normal" in="SourceGraphic" in2="BackgroundImageFix" result="shape"/>
<feColorMatrix in="SourceAlpha" type="matrix" values="0 0 0 0 0 0 0 0 0 0 0 0 0 0 0 0 0 0 127 0" result="hardAlpha"/>
<feOffset dy="-5"/>
<feGaussianBlur stdDeviation="2"/>
<feComposite in2="hardAlpha" operator="arithmetic" k2="-1" k3="1"/>
<feColorMatrix type="matrix" values="0 0 0 0 0 0 0 0 0 0 0 0 0 0 0 0 0 0 0.25 0"/>
<feBlend mode="normal" in2="shape" result="effect1_innerShadow_402_13"/>
<feColorMatrix in="SourceAlpha" type="matrix" values="0 0 0 0 0 0 0 0 0 0 0 0 0 0 0 0 0 0 127 0" result="hardAlpha"/>
<feOffset dx="8"/>
<feGaussianBlur stdDeviation="2"/>
<feComposite in2="hardAlpha" operator="arithmetic" k2="-1" k3="1"/>
<feColorMatrix type="matrix" values="0 0 0 0 0 0 0 0 0 0 0 0 0 0 0 0 0 0 0.25 0"/>
<feBlend mode="normal" in2="effect1_innerShadow_402_13" result="effect2_innerShadow_402_13"/>
<feColorMatrix in="SourceAlpha" type="matrix" values="0 0 0 0 0 0 0 0 0 0 0 0 0 0 0 0 0 0 127 0" result="hardAlpha"/>
<feOffset dy="7"/>
<feGaussianBlur stdDeviation="2.5"/>
<feComposite in2="hardAlpha" operator="arithmetic" k2="-1" k3="1"/>
<feColorMatrix type="matrix" values="0 0 0 0 0 0 0 0 0 0 0 0 0 0 0 0 0 0 0.25 0"/>
<feBlend mode="normal" in2="effect2_innerShadow_402_13" result="effect3_innerShadow_402_13"/>
</filter>
<filter id="filter1_d_402_13" x="85.6299" y="46.705" width="41.0771" height="36.7332" filterUnits="userSpaceOnUse" color-interpolation-filters="sRGB">
<feFlood flood-opacity="0" result="BackgroundImageFix"/>
<feColorMatrix in="SourceAlpha" type="matrix" values="0 0 0 0 0 0 0 0 0 0 0 0 0 0 0 0 0 0 127 0" result="hardAlpha"/>
<feOffset dx="4" dy="2"/>
<feGaussianBlur stdDeviation="2"/>
<feComposite in2="hardAlpha" operator="out"/>
<feColorMatrix type="matrix" values="0 0 0 0 0 0 0 0 0 0 0 0 0 0 0 0 0 0 0.25 0"/>
<feBlend mode="normal" in2="BackgroundImageFix" result="effect1_dropShadow_402_13"/>
<feBlend mode="normal" in="SourceGraphic" in2="effect1_dropShadow_402_13" result="shape"/>
</filter>
<filter id="filter2_d_402_13" x="24.3716" y="31" width="132.155" height="82" filterUnits="userSpaceOnUse" color-interpolation-filters="sRGB">
<feFlood flood-opacity="0" result="BackgroundImageFix"/>
<feColorMatrix in="SourceAlpha" type="matrix" values="0 0 0 0 0 0 0 0 0 0 0 0 0 0 0 0 0 0 127 0" result="hardAlpha"/>
<feOffset dy="4"/>
<feGaussianBlur stdDeviation="2"/>
<feComposite in2="hardAlpha" operator="out"/>
<feColorMatrix type="matrix" values="0 0 0 0 0 0 0 0 0 0 0 0 0 0 0 0 0 0 0.25 0"/>
<feBlend mode="normal" in2="BackgroundImageFix" result="effect1_dropShadow_402_13"/>
<feBlend mode="normal" in="SourceGraphic" in2="effect1_dropShadow_402_13" result="shape"/>
</filter>
<filter id="filter3_iii_402_13" x="148.992" y="19.6176" width="167.995" height="102.592" filterUnits="userSpaceOnUse" color-interpolation-filters="sRGB">
<feFlood flood-opacity="0" result="BackgroundImageFix"/>
<feBlend mode="normal" in="SourceGraphic" in2="BackgroundImageFix" result="shape"/>
<feColorMatrix in="SourceAlpha" type="matrix" values="0 0 0 0 0 0 0 0 0 0 0 0 0 0 0 0 0 0 127 0" result="hardAlpha"/>
<feOffset dy="7"/>
<feGaussianBlur stdDeviation="2.5"/>
<feComposite in2="hardAlpha" operator="arithmetic" k2="-1" k3="1"/>
<feColorMatrix type="matrix" values="0 0 0 0 0 0 0 0 0 0 0 0 0 0 0 0 0 0 0.5 0"/>
<feBlend mode="normal" in2="shape" result="effect1_innerShadow_402_13"/>
<feColorMatrix in="SourceAlpha" type="matrix" values="0 0 0 0 0 0 0 0 0 0 0 0 0 0 0 0 0 0 127 0" result="hardAlpha"/>
<feOffset dy="-5"/>
<feGaussianBlur stdDeviation="2"/>
<feComposite in2="hardAlpha" operator="arithmetic" k2="-1" k3="1"/>
<feColorMatrix type="matrix" values="0 0 0 0 0 0 0 0 0 0 0 0 0 0 0 0 0 0 0.25 0"/>
<feBlend mode="normal" in2="effect1_innerShadow_402_13" result="effect2_innerShadow_402_13"/>
<feColorMatrix in="SourceAlpha" type="matrix" values="0 0 0 0 0 0 0 0 0 0 0 0 0 0 0 0 0 0 127 0" result="hardAlpha"/>
<feOffset dx="8"/>
<feGaussianBlur stdDeviation="2"/>
<feComposite in2="hardAlpha" operator="arithmetic" k2="-1" k3="1"/>
<feColorMatrix type="matrix" values="0 0 0 0 0 0 0 0 0 0 0 0 0 0 0 0 0 0 0.25 0"/>
<feBlend mode="normal" in2="effect2_innerShadow_402_13" result="effect3_innerShadow_402_13"/>
</filter>
<filter id="filter4_iii_402_13" x="275.199" y="27" width="157.146" height="80.2766" filterUnits="userSpaceOnUse" color-interpolation-filters="sRGB">
<feFlood flood-opacity="0" result="BackgroundImageFix"/>
<feBlend mode="normal" in="SourceGraphic" in2="BackgroundImageFix" result="shape"/>
<feColorMatrix in="SourceAlpha" type="matrix" values="0 0 0 0 0 0 0 0 0 0 0 0 0 0 0 0 0 0 127 0" result="hardAlpha"/>
<feOffset dy="7"/>
<feGaussianBlur stdDeviation="2"/>
<feComposite in2="hardAlpha" operator="arithmetic" k2="-1" k3="1"/>
<feColorMatrix type="matrix" values="0 0 0 0 0 0 0 0 0 0 0 0 0 0 0 0 0 0 0.25 0"/>
<feBlend mode="normal" in2="shape" result="effect1_innerShadow_402_13"/>
<feColorMatrix in="SourceAlpha" type="matrix" values="0 0 0 0 0 0 0 0 0 0 0 0 0 0 0 0 0 0 127 0" result="hardAlpha"/>
<feOffset dx="8"/>
<feGaussianBlur stdDeviation="2"/>
<feComposite in2="hardAlpha" operator="arithmetic" k2="-1" k3="1"/>
<feColorMatrix type="matrix" values="0 0 0 0 0 0 0 0 0 0 0 0 0 0 0 0 0 0 0.25 0"/>
<feBlend mode="normal" in2="effect1_innerShadow_402_13" result="effect2_innerShadow_402_13"/>
<feColorMatrix in="SourceAlpha" type="matrix" values="0 0 0 0 0 0 0 0 0 0 0 0 0 0 0 0 0 0 127 0" result="hardAlpha"/>
<feOffset dy="-5"/>
<feGaussianBlur stdDeviation="2"/>
<feComposite in2="hardAlpha" operator="arithmetic" k2="-1" k3="1"/>
<feColorMatrix type="matrix" values="0 0 0 0 0 0 0 0 0 0 0 0 0 0 0 0 0 0 0.25 0"/>
<feBlend mode="normal" in2="effect2_innerShadow_402_13" result="effect3_innerShadow_402_13"/>
</filter>
</defs>
</svg>
